<svg version="1.1" viewBox="0.0 0.0 960.0 720.0" fill="none" stroke="none" stroke-linecap="square" stroke-miterlimit="10" xmlns:xlink="http://www.w3.org/1999/xlink" xmlns="http://www.w3.org/2000/svg"><clipPath id="p.0"><path d="m0 0l960.0 0l0 720.0l-960.0 0l0 -720.0z" clip-rule="nonzero"/></clipPath><g clip-path="url(#p.0)"><path fill="#000000" fill-opacity="0.0" d="m0 0l960.0 0l0 720.0l-960.0 0z" fill-rule="evenodd"/><path fill="#cfe2f3" d="m166.12227 191.8869l13.196747 0l0 19.448166l-13.196747 0z" fill-rule="evenodd"/><path stroke="#073763" stroke-width="3.0" stroke-linejoin="round" stroke-linecap="butt" d="m166.12227 191.8869l13.196747 0l0 19.448166l-13.196747 0z" fill-rule="evenodd"/><path fill="#cfe2f3" d="m164.71823 187.03842l0 0c0 -0.6042023 0.48980713 -1.0940094 1.0940094 -1.0940094l13.819153 0c0.29014587 0 0.5684204 0.11526489 0.7735901 0.32043457c0.20515442 0.20516968 0.3204193 0.48342896 0.3204193 0.7735748l0 4.3759003c0 0.6042023 -0.48980713 1.0940094 -1.0940094 1.0940094l-13.819153 0c-0.6042023 0 -1.0940094 -0.48980713 -1.0940094 -1.0940094z" fill-rule="evenodd"/><path stroke="#073763" stroke-width="3.0" stroke-linejoin="round" stroke-linecap="butt" d="m164.71823 187.03842l0 0c0 -0.6042023 0.48980713 -1.0940094 1.0940094 -1.0940094l13.819153 0c0.29014587 0 0.5684204 0.11526489 0.7735901 0.32043457c0.20515442 0.20516968 0.3204193 0.48342896 0.3204193 0.7735748l0 4.3759003c0 0.6042023 -0.48980713 1.0940094 -1.0940094 1.0940094l-13.819153 0c-0.6042023 0 -1.0940094 -0.48980713 -1.0940094 -1.0940094z" fill-rule="evenodd"/><path fill="#cfe2f3" d="m169.6509 182.82375l0 0c0 -0.3438263 0.2787323 -0.6225586 0.62257385 -0.6225586l4.8848267 0c0.16511536 0 0.32347107 0.065582275 0.44023132 0.18234253c0.116744995 0.116744995 0.18234253 0.2751007 0.18234253 0.44021606l0 2.4902039c0 0.34384155 -0.2787323 0.62257385 -0.62257385 0.62257385l-4.8848267 0c-0.34384155 0 -0.62257385 -0.2787323 -0.62257385 -0.62257385z" fill-rule="evenodd"/><path stroke="#073763" stroke-width="3.0" stroke-linejoin="round" stroke-linecap="butt" d="m169.6509 182.82375l0 0c0 -0.3438263 0.2787323 -0.6225586 0.62257385 -0.6225586l4.8848267 0c0.16511536 0 0.32347107 0.065582275 0.44023132 0.18234253c0.116744995 0.116744995 0.18234253 0.2751007 0.18234253 0.44021606l0 2.4902039c0 0.34384155 -0.2787323 0.62257385 -0.62257385 0.62257385l-4.8848267 0c-0.34384155 0 -0.62257385 -0.2787323 -0.62257385 -0.62257385z" fill-rule="evenodd"/></g></svg>